<svg id="Layer_2" height="512" viewBox="0 0 128 128" width="512" xmlns="http://www.w3.org/2000/svg" data-name="Layer 2"><path d="m40.013 78.377a1.75 1.75 0 1 0 -2.474 2.475l9.609 9.609a1.75 1.75 0 0 0 2.475-2.475z"/><path d="m122.737 5.263a1.743 1.743 0 0 0 -1.654-.462 27.845 27.845 0 0 1 -10.812.088 1.75 1.75 0 0 0 -2.124.965l-4.52 10.262-2.834 2.643-2.236-2.237a1.75 1.75 0 1 0 -2.474 2.478l2.149 2.15-1.806 1.684-2.089-2.088a1.75 1.75 0 1 0 -2.474 2.475l2 2-18.142 16.917c-4.322-2.679-9.685-2.844-16.343-.5a20.735 20.735 0 0 1 -14.331-.047 1.749 1.749 0 0 0 -2.447 1.223c-1.173 5.493-4.1 12.311-8.8 14.974a9.536 9.536 0 0 1 -8.186.507 1.75 1.75 0 0 0 -2.21 1.049c-1.554 4.206-4.138 6.015-7.409 8.306a39.915 39.915 0 0 0 -5.666 4.541c-8.768 8.76-7.146 21.262 4.4 34.451l-1.693 2.106a1.751 1.751 0 0 0 .127 2.334l.649.649-4.048 4.04a1.75 1.75 0 1 0 2.473 2.477l4.05-4.043.641.642a1.753 1.753 0 0 0 2.334.127l2.109-1.7c7.568 6.622 14.909 9.986 21.448 9.985a17.932 17.932 0 0 0 13-5.586 39.79 39.79 0 0 0 4.542-5.667c2.291-3.271 4.1-5.855 8.308-7.409a1.75 1.75 0 0 0 1.048-2.209 9.531 9.531 0 0 1 .507-8.187c2.663-4.7 9.481-7.633 14.973-8.8a1.755 1.755 0 0 0 1.225-2.443 20.713 20.713 0 0 1 -.05-14.338c2.346-6.658 2.181-12.02-.5-16.342l16.919-18.144 2 2a1.75 1.75 0 1 0 2.474-2.475l-2.088-2.089 1.684-1.806 2.139 2.153a1.75 1.75 0 1 0 2.475-2.475l-2.236-2.235 2.642-2.834 10.262-4.52a1.8 1.8 0 0 0 .973-2.1 27.837 27.837 0 0 1 .084-10.836 1.75 1.75 0 0 0 -.463-1.654zm-24.45 28.56-4.109-4.11 10.863-10.13 3.376 3.376zm-36.866 39.535-6.779-6.779 36.975-34.479 4.283 4.284zm-43.138 37.9-.752-.752-.012-.016-.017-.013-.764-.764 12.217-15.2 4.528 4.529zm64.777-43.8a24.627 24.627 0 0 0 -.532 14.99c-4.177 1.136-11.936 3.983-15.361 10.033a12.646 12.646 0 0 0 -1.232 9.471c-4.211 2-6.364 5.069-8.453 8.051a37.077 37.077 0 0 1 -4.15 5.2c-9.572 9.582-21.852 2.141-29.2-4.152l13.065-10.5a1.749 1.749 0 0 0 .141-2.6l-7.288-7.289a1.728 1.728 0 0 0 -1.332-.51 1.753 1.753 0 0 0 -1.27.651l-10.5 13.066c-6.293-7.349-13.733-19.628-4.148-29.202a37.118 37.118 0 0 1 5.2-4.149c2.982-2.089 6.055-4.242 8.051-8.453a12.654 12.654 0 0 0 9.47-1.231c6.051-3.426 8.9-11.185 10.034-15.362a24.635 24.635 0 0 0 14.99-.532c6.318-2.225 10.086-1.534 12.5-.308l-22.115 20.623a1.75 1.75 0 0 0 -.044 2.517l9.342 9.342a1.748 1.748 0 0 0 1.237.513h.035a1.749 1.749 0 0 0 1.249-.557l20.619-22.116c1.232 2.418 1.918 6.185-.308 12.504zm28.18-46.625-4.072-4.073 3.625-8.232a32.974 32.974 0 0 0 8.538.142 33.062 33.062 0 0 0 .141 8.536z"/></svg>