<?xml version="1.0"?>
<svg xmlns="http://www.w3.org/2000/svg" id="Layer_2" data-name="Layer 2" viewBox="0 0 128 128" width="512" height="512"><title>DRUM SET</title><path d="M25.862,91.873a1.751,1.751,0,0,0-.909-.922l-4.2-1.844V29.25H31.5a1.75,1.75,0,0,0,0-3.5H20.75V24.192a1.75,1.75,0,0,0-3.5,0V25.75H6.5a1.75,1.75,0,0,0,0,3.5H17.25V89.107l-4.2,1.844a1.751,1.751,0,0,0-.909.922l-4.75,11.254a1.75,1.75,0,1,0,3.224,1.361l4.479-10.612,2.159-.947v10.879a1.75,1.75,0,0,0,3.5,0V92.929l2.159.947,4.479,10.612a1.75,1.75,0,1,0,3.224-1.361Z"/><path d="M120.612,103.127l-4.75-11.254a1.751,1.751,0,0,0-.909-.922l-4.2-1.844V47.5a1.733,1.733,0,0,0-.1-.584L104.4,29.25H114.6a1.75,1.75,0,0,0,0-3.5H103.157l-.758-2.142a1.749,1.749,0,1,0-3.3,1.168l.344.974H89.6a1.75,1.75,0,0,0,0,3.5h11.082L107.25,47.8V89.107l-4.2,1.844a1.751,1.751,0,0,0-.909.922l-4.75,11.254a1.75,1.75,0,1,0,3.224,1.361l4.479-10.612,2.159-.947v10.879a1.75,1.75,0,0,0,3.5,0V92.929l2.159.947,4.479,10.612a1.75,1.75,0,1,0,3.224-1.361Z"/><path d="M64,68.4a10.25,10.25,0,1,0,10.25,10.25A10.261,10.261,0,0,0,64,68.4Zm0,17a6.75,6.75,0,1,1,6.75-6.75A6.757,6.757,0,0,1,64,85.4Z"/><path d="M96.646,67.393a4.724,4.724,0,0,0,3.64-.15,4.7,4.7,0,0,0,2.455-2.667l2.369-6.419a4.744,4.744,0,0,0-.982-8.407L88.146,43.859a4.731,4.731,0,0,0-6.2,5.747L79.576,56.04a4.755,4.755,0,0,0,2.818,6.092l5.48,2.022-2.225,6.038a23.24,23.24,0,0,0-43.3,0l-2.224-6.038L45.6,62.134a4.744,4.744,0,0,0,2.821-6.1l-2.369-6.427a4.7,4.7,0,0,0-.1-2.935,4.755,4.755,0,0,0-6.1-2.814L23.872,49.75a4.741,4.741,0,0,0-.981,8.408l2.365,6.413a4.741,4.741,0,0,0,6.1,2.821l5.486-2.025L40.869,76.3a23.522,23.522,0,0,0-.119,2.356,23.215,23.215,0,0,0,8.794,18.19l-2.81,6.251a1.75,1.75,0,1,0,3.192,1.434l2.558-5.69a23.167,23.167,0,0,0,23.032,0l2.557,5.69a1.75,1.75,0,1,0,3.193-1.434l-2.81-6.251a23.214,23.214,0,0,0,8.794-18.19,23.487,23.487,0,0,0-.119-2.355l4.027-10.93ZM24.38,53.684a1.241,1.241,0,0,1,.7-.65l15.982-5.891a1.25,1.25,0,0,1,1.605.741,1.251,1.251,0,0,1-.741,1.6L25.948,55.38a1.25,1.25,0,0,1-1.568-1.7Zm5.766,10.423a1.251,1.251,0,0,1-.959-.039,1.236,1.236,0,0,1-.645-.7l-1.7-4.615c.106-.031.213-.047.319-.086h0L43.14,52.773c.1-.039.2-.1.3-.144l1.7,4.612a1.257,1.257,0,0,1-.036.962,1.241,1.241,0,0,1-.706.646ZM64,98.4a19.75,19.75,0,1,1,19.75-19.75A19.773,19.773,0,0,1,64,98.4ZM85.331,47.883a1.249,1.249,0,0,1,1.6-.74l15.982,5.891a1.25,1.25,0,1,1-.865,2.346h0L86.07,49.489A1.252,1.252,0,0,1,85.331,47.883Zm-2.47,9.362,1.7-4.617c.1.046.191.106.3.145l15.983,5.891h0c.1.039.212.055.318.086l-1.7,4.62a1.247,1.247,0,0,1-1.6.738L83.6,58.847A1.252,1.252,0,0,1,82.861,57.245Z"/></svg>
