<svg id="Layer_2" height="512" viewBox="0 0 128 128" width="512" xmlns="http://www.w3.org/2000/svg" data-name="Layer 2"><path d="m64 82.25a23.25 23.25 0 1 0 -23.25-23.25 23.276 23.276 0 0 0 23.25 23.25zm0-43a19.75 19.75 0 1 1 -19.75 19.75 19.772 19.772 0 0 1 19.75-19.75z"/><circle cx="33.192" cy="15.5" r="3"/><circle cx="94.808" cy="15.5" r="3"/><circle cx="33.192" cy="102.5" r="3"/><circle cx="94.808" cy="102.5" r="3"/><path d="m103.808 4.75h-79.616a1.751 1.751 0 0 0 -1.75 1.75v105a1.751 1.751 0 0 0 1.75 1.75h3.125v8.25a1.751 1.751 0 0 0 1.75 1.75h10a1.75 1.75 0 0 0 1.75-1.75v-8.25h46.366v8.25a1.75 1.75 0 0 0 1.75 1.75h10a1.751 1.751 0 0 0 1.75-1.75v-8.25h3.125a1.751 1.751 0 0 0 1.75-1.75v-105a1.751 1.751 0 0 0 -1.75-1.75zm-66.491 115h-6.5v-6.5h6.5zm59.866 0h-6.5v-6.5h6.5zm4.875-10h-76.116v-101.5h76.116z"/><path d="m95.058 55.75v28.875a1.75 1.75 0 0 0 3.5 0v-28.875a1.75 1.75 0 1 0 -3.5 0z"/></svg>